<svg width="34" height="34" viewBox="0 0 34 34" fill="none" xmlns="http://www.w3.org/2000/svg">
<g clip-path="url(#clip0_597_796)">
<path d="M15.1111 0.151241C13.3733 0.332573 11.4089 0.921906 9.59557 1.79835C3.23379 4.86591 -0.513765 11.5299 0.151124 18.5717C0.513791 22.3797 2.10046 25.9006 4.72979 28.6659C6.19557 30.2072 7.48001 31.1441 9.44446 32.1112C11.4996 33.1237 13.2978 33.6526 15.3831 33.849C18.6773 34.1512 21.76 33.5619 24.6765 32.0659C30.4187 29.1344 33.8942 23.4526 33.8942 17.0001C33.8942 12.5726 32.3227 8.56813 29.3156 5.37968C25.7342 1.57169 20.4151 -0.392757 15.1111 0.151241ZM18.1031 12.7237C18.224 12.8446 18.2845 13.4641 18.2845 14.5521C18.2845 16.169 18.4205 16.7735 18.7831 16.7735C19.0853 16.7735 19.8258 15.7308 20.5511 14.2801L21.2462 12.9201H22.984C24.6613 12.9201 24.7067 12.9352 24.752 13.2677C24.8125 13.721 24.3893 14.537 23.3618 15.9121C22.032 17.7104 22.032 17.529 23.256 18.7832C23.8453 19.3877 24.4196 20.0072 24.5405 20.1735C24.8427 20.5815 24.8427 21.2464 24.5405 21.3672C24.1325 21.5335 21.6089 21.4579 21.2613 21.2917C21.08 21.1859 20.5058 20.7175 19.992 20.2339C18.8133 19.1006 18.632 19.1308 18.36 20.5512C18.1938 21.337 18.0276 21.4579 17.1662 21.4579C15.3529 21.4579 13.6756 20.5966 12.4667 19.0704C11.0462 17.3024 9.06668 13.6001 9.26312 13.0864C9.35379 12.8748 9.58046 12.8446 10.8347 12.8748L12.3156 12.9201L12.92 14.129C14.4916 17.2419 15.2622 17.5744 15.2622 15.1264C15.2622 13.9477 15.0809 13.2979 14.7485 13.2979C14.3858 13.2979 14.2951 12.9655 14.5822 12.7388C14.96 12.4819 17.8462 12.4668 18.1031 12.7237Z" fill="black"/>
</g>
<defs>
<clipPath id="clip0_597_796">
<rect width="34" height="34" fill="white"/>
</clipPath>
</defs>
</svg>
