<svg width="261" height="72" viewBox="0 0 261 72" fill="none" xmlns="http://www.w3.org/2000/svg">
<g clip-path="url(#clip0_106_2271)">
<mask id="mask0_106_2271" style="mask-type:luminance" maskUnits="userSpaceOnUse" x="16" y="16" width="229" height="40">
<path d="M244.801 16H16.1992V56H244.801V16Z" fill="white"/>
</mask>
<g mask="url(#mask0_106_2271)">
<path d="M85.4256 40.8176C85.4256 43.8543 82.6107 46.0532 78.6488 46.0532H69.3701V27.2051H78.3362C82.1937 27.2051 84.9043 29.2993 84.9043 32.2313C84.9043 34.2208 83.8616 35.4773 82.2981 36.2103C83.966 36.8386 85.4256 38.514 85.4256 40.8176ZM73.436 30.6606V34.7444H78.2318C79.6914 34.7444 80.6297 33.9066 80.6297 32.7548C80.6297 31.603 79.5871 30.6606 78.2318 30.6606H73.436ZM78.6488 42.5978C80.2128 42.5978 81.3598 41.6554 81.3598 40.2941C81.3598 38.9328 80.3171 37.9904 78.6488 37.9904H73.436V42.5978H78.6488Z" fill="black"/>
<path d="M100.751 45.9485L94.2877 38.514H93.2451V45.9485H89.0745V27.2051H93.2451V34.4302H94.2877L100.543 27.2051H105.443L97.6235 36.2103L106.173 45.9485H100.751Z" fill="black"/>
<path d="M106.173 36.6289C106.173 30.9744 110.343 26.8906 116.181 26.8906C122.02 26.8906 126.19 30.9744 126.19 36.6289C126.19 42.2833 122.02 46.3671 116.181 46.3671C110.343 46.3671 106.173 42.2833 106.173 36.6289ZM121.812 36.6289C121.812 33.0687 119.518 30.6603 116.181 30.6603C112.845 30.6603 110.552 33.0687 110.552 36.6289C110.552 40.1891 112.845 42.5975 116.181 42.5975C119.518 42.5975 121.812 40.1891 121.812 36.6289Z" fill="black"/>
<path d="M142.142 27.2051H146.312V45.9485H142.142V38.4093H133.801V45.9485H129.631V27.2051H133.801V34.6396H142.142V27.2051Z" fill="black"/>
<path d="M155.278 45.9485V30.9747H148.814V27.2051H165.808V30.9747H159.344V45.9485H155.278Z" fill="black"/>
<path d="M183.74 35.477V45.9482H180.716L179.882 43.0163C178.944 44.587 176.963 46.3671 173.94 46.3671C170.186 46.3671 167.476 43.854 167.476 40.3985C167.476 36.943 170.186 34.5346 175.712 34.5346H179.778C179.57 32.1262 178.318 30.4509 176.025 30.4509C174.148 30.4509 172.897 31.498 172.272 32.6498L168.518 32.0215C169.457 28.7755 172.689 26.8906 176.234 26.8906C180.821 26.8906 183.74 30.032 183.74 35.477ZM179.674 37.7807H175.816C172.689 37.7807 171.646 38.8278 171.646 40.1891C171.646 41.7597 172.897 42.8069 174.982 42.8069C177.693 42.8069 179.674 40.8173 179.674 37.7807Z" fill="black"/>
<path d="M199.796 45.9485L193.332 38.514H192.289V45.9485H188.119V27.2051H192.289V34.4302H193.332L199.587 27.2051H204.487L196.668 36.2103L205.217 45.9485H199.796Z" fill="black"/>
<path d="M212.723 45.9485V30.9747H206.259V27.2051H223.253V30.9747H216.789V45.9485H212.723Z" fill="black"/>
<path d="M244.104 37.7807H229.092C229.509 40.7126 231.594 42.5975 234.721 42.5975C236.911 42.5975 238.579 41.655 239.517 40.2938L243.375 40.9221C242.019 44.4823 238.37 46.3671 234.409 46.3671C228.779 46.3671 224.713 42.2833 224.713 36.6289C224.713 30.9744 228.779 26.8906 234.409 26.8906C240.039 26.8906 244.104 30.9744 244.104 36.4194C244.209 36.943 244.104 37.3619 244.104 37.7807ZM229.404 34.5346H239.726C238.996 32.2309 237.119 30.5555 234.513 30.5555C232.011 30.4509 230.03 32.1262 229.404 34.5346Z" fill="black"/>
<path fill-rule="evenodd" clip-rule="evenodd" d="M18.9988 18.8118C16.1992 21.6236 16.1992 26.149 16.1992 35.2V36.8C16.1992 45.851 16.1992 50.3764 18.9988 53.1882C21.7983 56 26.3041 56 35.3157 56H36.9088C45.9204 56 50.4262 56 53.2258 53.1882C56.0253 50.3764 56.0253 45.851 56.0253 36.8V35.2C56.0253 26.149 56.0253 21.6236 53.2258 18.8118C50.4262 16 45.9204 16 36.9088 16H35.3157C26.3041 16 21.7983 16 18.9988 18.8118ZM22.92 28.1668C23.1356 38.5668 28.313 44.8167 37.39 44.8167H37.9046V38.8667C41.24 39.2 43.7621 41.6501 44.7744 44.8167H49.4873C48.1929 40.0834 44.7909 37.4667 42.6669 36.4667C44.7909 35.2334 47.7779 32.2334 48.4914 28.1668H44.21C43.2808 31.4668 40.5264 34.4667 37.9046 34.75V28.1668H33.6231V39.7C30.968 39.0334 27.6161 35.8001 27.4667 28.1668H22.92Z" fill="black"/>
</g>
</g>
<defs>
<clipPath id="clip0_106_2271">
<rect width="229" height="40" fill="white" transform="translate(16 16)"/>
</clipPath>
</defs>
</svg>
